<?xml version="1.0" encoding="utf-8"?>
<svg viewBox="339.444 226.248 175.611 145.419" xmlns="http://www.w3.org/2000/svg">
  <defs>
    <clipPath id="bound_0" xe_id="bound_0">
      <rect id="xe_7lrngb" x="215.5" y="165.625" pointer-events="all" width="524" height="294.75"/>
    </clipPath>
  </defs>
  <g class="layer" id="Layer_0" xe_id="Layer_0" style="pointer-events:all" clip-path="url(#bound_0)">
    <title>Layer_0</title>
    <g id="background" type="bg_area_0" pointer-events="none" style="color-interpolation-filters:sRGB;pointer-events: none;"/>
    <g id="xe_6a4p83" type="image" pointer-events="bounding-box" xe-props="&amp;#35;&amp;#103;&amp;#76;&amp;#73;&amp;#65;&amp;#101;&amp;#122;&amp;#127;&amp;#26;&amp;#89;&amp;#92;&amp;#97;&amp;#63;&amp;#32;&amp;#26;&amp;#28;&amp;#19;&amp;#111;&amp;#58;&amp;#47;&amp;#93;&amp;#83;&amp;#69;&amp;#84;&amp;#49;&amp;#49;&amp;#84;&amp;#85;&amp;#19;&amp;#58;&amp;#122;&amp;#103;&amp;#20;&amp;#18;&amp;#88;&amp;#115;&amp;#12;&amp;#32;&amp;#85;&amp;#64;&amp;#93;&amp;#97;&amp;#44;&amp;#32;&amp;#113;&amp;#93;&amp;#86;&amp;#34;&amp;#98;&amp;#35;&amp;#89;&amp;#92;&amp;#66;&amp;#101;&amp;#116;&amp;#103;&amp;#91;&amp;#95;&amp;#95;&amp;#116;&amp;#61;&amp;#43;&amp;#76;&amp;#100;&amp;#72;&amp;#112;&amp;#61;&amp;#103;&amp;#2;&amp;#18;&amp;#88;&amp;#109;&amp;#57;&amp;#34;&amp;#93;&amp;#31;&amp;#66;&amp;#118;&amp;#63;&amp;#110;&amp;#64;&amp;#93;&amp;#93;&amp;#34;&amp;#116;&amp;#103;&amp;#81;&amp;#93;&amp;#86;&amp;#69;&amp;#32;&amp;#49;&amp;#93;&amp;#94;&amp;#66;&amp;#105;&amp;#55;&amp;#43;&amp;#26;&amp;#10;&amp;#19;&amp;#115;&amp;#46;&amp;#34;&amp;#26;&amp;#28;&amp;#19;&amp;#111;&amp;#54;&amp;#32;&amp;#123;&amp;#95;&amp;#93;&amp;#111;&amp;#42;&amp;#3;&amp;#81;&amp;#92;&amp;#93;&amp;#34;&amp;#98;&amp;#103;&amp;#27;&amp;#118;&amp;#119;&amp;#48;&amp;#104;&amp;#117;&amp;#8;&amp;#18;&amp;#29;&amp;#34;&amp;#49;&amp;#40;&amp;#95;&amp;#100;&amp;#72;&amp;#112;&amp;#61;&amp;#103;&amp;#2;&amp;#18;&amp;#66;&amp;#118;&amp;#63;&amp;#103;&amp;#20;&amp;#18;&amp;#88;&amp;#109;&amp;#63;&amp;#22;&amp;#93;&amp;#92;&amp;#84;&amp;#99;&amp;#44;&amp;#44;&amp;#87;&amp;#94;&amp;#101;&amp;#121;&amp;#40;&amp;#32;&amp;#26;&amp;#10;&amp;#19;&amp;#117;&amp;#40;&amp;#41;&amp;#87;&amp;#81;&amp;#85;&amp;#34;&amp;#116;&amp;#103;&amp;#84;&amp;#95;&amp;#82;&amp;#107;&amp;#122;&amp;#127;&amp;#67;&amp;#18;&amp;#82;&amp;#111;&amp;#52;&amp;#42;&amp;#74;&amp;#117;&amp;#85;&amp;#105;&amp;#44;&amp;#103;&amp;#2;&amp;#86;&amp;#80;&amp;#108;&amp;#43;&amp;#32;&amp;#20;&amp;#18;&amp;#85;&amp;#101;&amp;#52;&amp;#32;&amp;#76;&amp;#85;&amp;#19;&amp;#58;&amp;#62;&amp;#36;&amp;#84;&amp;#67;&amp;#84;&amp;#44;&amp;#122;&amp;#40;&amp;#87;&amp;#70;&amp;#84;&amp;#34;&amp;#98;&amp;#35;&amp;#89;&amp;#92;&amp;#66;&amp;#101;&amp;#116;&amp;#103;&amp;#74;&amp;#95;&amp;#69;&amp;#97;&amp;#44;&amp;#32;&amp;#26;&amp;#10;&amp;#87;&amp;#97;&amp;#52;&amp;#54;&amp;#93;&amp;#28;&amp;#19;&amp;#114;&amp;#61;&amp;#54;&amp;#81;&amp;#74;&amp;#84;&amp;#34;&amp;#98;&amp;#35;&amp;#89;&amp;#92;&amp;#66;&amp;#101;&amp;#116;&amp;#103;&amp;#93;&amp;#84;&amp;#88;&amp;#116;&amp;#122;&amp;#127;&amp;#94;&amp;#81;&amp;#93;&amp;#115;&amp;#61;&amp;#56;&amp;#20;&amp;#18;&amp;#82;&amp;#111;&amp;#52;&amp;#42;&amp;#74;&amp;#67;&amp;#19;&amp;#58;&amp;#3;&amp;#103;&amp;#77;&amp;#66;&amp;#93;&amp;#40;&amp;#123;&amp;#36;&amp;#92;&amp;#4;&amp;#82;&amp;#52;&amp;#62;&amp;#124;&amp;#14;&amp;#29;&amp;#1;&amp;#57;&amp;#57;&amp;#36;&amp;#21;&amp;#4;&amp;#87;&amp;#57;&amp;#105;&amp;#104;&amp;#90;&amp;#81;&amp;#0;&amp;#48;&amp;#117;&amp;#112;&amp;#91;&amp;#82;&amp;#9;&amp;#97;&amp;#60;&amp;#112;&amp;#11;&amp;#0;&amp;#87;&amp;#55;&amp;#108;&amp;#108;&amp;#26;&amp;#28;&amp;#19;&amp;#35;&amp;#107;&amp;#114;&amp;#91;&amp;#2;&amp;#83;&amp;#49;&amp;#122;&amp;#105;&amp;#26;&amp;#19;&amp;#87;&amp;#102;&amp;#62;&amp;#103;&amp;#20;&amp;#18;&amp;#18;&amp;#50;&amp;#109;&amp;#125;&amp;#10;&amp;#7;&amp;#6;&amp;#34;&amp;#5;&amp;#105;&amp;#26;&amp;#89;&amp;#92;&amp;#97;&amp;#63;&amp;#32;&amp;#111;&amp;#81;&amp;#67;&amp;#110;&amp;#49;&amp;#43;&amp;#95;&amp;#18;&amp;#11;&amp;#102;&amp;#57;&amp;#41;&amp;#75;&amp;#85;&amp;#76;">
      <g id="xe_7ph5sz">
        <title>Icon-storage-86</title>
        <path d="M339.44434123460957,258.07071262822916 L488.88899233795996,258.07071262822916 A0,0 0 0 1 488.88899233795996,258.07071262822916 L488.88899233795996,341.408082772921 A5.010791242877041,5.010791242877041 0 0 1 483.8782010950829,346.418874015798 L344.4551324774866,346.418874015798 A5.010791242877041,5.010791242877041 0 0 1 339.44434123460957,341.408082772921 L339.44434123460957,258.07071262822916 A0,0 0 0 1 339.44434123460957,258.07071262822916 z" fill="url(#ad4c4f96-09aa-4f91-ba10-5cb8ad530f74)" id="xe_vxl9ie" oldfill="url(#ad4c4f96-09aa-4f91-ba10-5cb8ad530f74)"/>
        <path d="M344.4551324774866,226.24779280504515 L483.8782010950829,226.24779280504515 A5.010791242877041,5.010791242877041 0 0 1 488.88899233795996,231.25858404792217 L488.88899233795996,258.07071262822916 A0,0 0 0 1 488.88899233795996,258.07071262822916 L339.44434123460957,258.07071262822916 A0,0 0 0 1 339.44434123460957,258.07071262822916 L339.44434123460957,231.1706754296261 A5.010791242877041,5.010791242877041 0 0 1 344.4551324774866,226.24779280504515 z" fill="#37c2b1" id="xe_a5udor" oldfill="#37c2b1"/>
        <path d="M359.751232061006,267.74066064079886 L468.4941928932674,267.74066064079886 A2.3735326939943877,2.3735326939943877 0 0 1 470.77981696896563,270.1141933347933 L470.77981696896563,282.42139989624565 A2.3735326939943877,2.3735326939943877 0 0 1 468.4941928932674,284.79493259024 L359.751232061006,284.79493259024 A2.3735326939943877,2.3735326939943877 0 0 1 357.4656079853077,282.42139989624565 L357.4656079853077,270.1141933347933 A2.3735326939943877,2.3735326939943877 0 0 1 359.751232061006,267.74066064079886 z" fill="#fff" id="xe_a0h0p4" oldfill="#fff"/>
        <path d="M359.8391406793021,292.26716514540755 L468.58210151156345,292.26716514540755 A2.3735326939943877,2.3735326939943877 0 0 1 470.8677255872617,294.6406978394019 L470.8677255872617,307.0358130191504 A2.3735326939943877,2.3735326939943877 0 0 1 468.58210151156345,309.40934571314483 L359.8391406793021,309.40934571314483 A2.3735326939943877,2.3735326939943877 0 0 1 357.5535166036038,307.0358130191504 L357.5535166036038,295.0802409308824 A2.3735326939943877,2.3735326939943877 0 0 1 359.8391406793021,292.26716514540755 z" fill="#37c2b1" id="xe_d73wqs" oldfill="#37c2b1"/>
        <path d="M359.8391406793021,317.0573955049045 L468.58210151156345,317.0573955049045 A2.3735326939943877,2.3735326939943877 0 0 1 470.8677255872617,319.43092819889887 L470.8677255872617,331.82604337864734 A2.3735326939943877,2.3735326939943877 0 0 1 468.58210151156345,334.1995760726417 L359.8391406793021,334.1995760726417 A2.3735326939943877,2.3735326939943877 0 0 1 357.5535166036038,331.82604337864734 L357.5535166036038,319.43092819889887 A2.3735326939943877,2.3735326939943877 0 0 1 359.8391406793021,317.0573955049045 z" fill="#258277" id="xe_pjdflz" oldfill="#258277"/>
      </g>
    </g>
    <g id="xe_xuewc9" type="image" pointer-events="bounding-box" xe-props="&amp;#35;&amp;#103;&amp;#76;&amp;#73;&amp;#65;&amp;#101;&amp;#122;&amp;#127;&amp;#26;&amp;#89;&amp;#92;&amp;#97;&amp;#63;&amp;#32;&amp;#26;&amp;#28;&amp;#19;&amp;#111;&amp;#58;&amp;#47;&amp;#93;&amp;#83;&amp;#69;&amp;#84;&amp;#49;&amp;#49;&amp;#84;&amp;#85;&amp;#19;&amp;#58;&amp;#122;&amp;#103;&amp;#20;&amp;#18;&amp;#88;&amp;#115;&amp;#12;&amp;#32;&amp;#85;&amp;#64;&amp;#93;&amp;#97;&amp;#44;&amp;#32;&amp;#113;&amp;#93;&amp;#86;&amp;#34;&amp;#98;&amp;#35;&amp;#89;&amp;#92;&amp;#66;&amp;#101;&amp;#116;&amp;#103;&amp;#91;&amp;#95;&amp;#95;&amp;#116;&amp;#61;&amp;#43;&amp;#76;&amp;#100;&amp;#72;&amp;#112;&amp;#61;&amp;#103;&amp;#2;&amp;#18;&amp;#88;&amp;#109;&amp;#57;&amp;#34;&amp;#93;&amp;#31;&amp;#66;&amp;#118;&amp;#63;&amp;#110;&amp;#64;&amp;#93;&amp;#93;&amp;#34;&amp;#116;&amp;#103;&amp;#81;&amp;#93;&amp;#86;&amp;#69;&amp;#32;&amp;#49;&amp;#93;&amp;#94;&amp;#66;&amp;#105;&amp;#55;&amp;#43;&amp;#26;&amp;#10;&amp;#19;&amp;#115;&amp;#46;&amp;#34;&amp;#26;&amp;#28;&amp;#19;&amp;#111;&amp;#54;&amp;#32;&amp;#123;&amp;#95;&amp;#93;&amp;#111;&amp;#42;&amp;#3;&amp;#81;&amp;#92;&amp;#93;&amp;#34;&amp;#98;&amp;#103;&amp;#27;&amp;#118;&amp;#119;&amp;#48;&amp;#104;&amp;#117;&amp;#8;&amp;#18;&amp;#29;&amp;#34;&amp;#49;&amp;#40;&amp;#95;&amp;#100;&amp;#72;&amp;#112;&amp;#61;&amp;#103;&amp;#2;&amp;#18;&amp;#66;&amp;#118;&amp;#63;&amp;#103;&amp;#20;&amp;#18;&amp;#88;&amp;#109;&amp;#63;&amp;#22;&amp;#93;&amp;#92;&amp;#84;&amp;#99;&amp;#44;&amp;#44;&amp;#87;&amp;#94;&amp;#101;&amp;#121;&amp;#40;&amp;#32;&amp;#26;&amp;#10;&amp;#19;&amp;#117;&amp;#40;&amp;#41;&amp;#87;&amp;#81;&amp;#85;&amp;#34;&amp;#116;&amp;#103;&amp;#84;&amp;#95;&amp;#82;&amp;#107;&amp;#122;&amp;#127;&amp;#67;&amp;#18;&amp;#82;&amp;#111;&amp;#52;&amp;#42;&amp;#74;&amp;#117;&amp;#85;&amp;#105;&amp;#44;&amp;#103;&amp;#2;&amp;#86;&amp;#80;&amp;#108;&amp;#43;&amp;#32;&amp;#20;&amp;#18;&amp;#85;&amp;#101;&amp;#52;&amp;#32;&amp;#76;&amp;#85;&amp;#19;&amp;#58;&amp;#62;&amp;#36;&amp;#84;&amp;#67;&amp;#84;&amp;#44;&amp;#122;&amp;#40;&amp;#87;&amp;#70;&amp;#84;&amp;#34;&amp;#98;&amp;#35;&amp;#89;&amp;#92;&amp;#66;&amp;#101;&amp;#116;&amp;#103;&amp;#74;&amp;#95;&amp;#69;&amp;#97;&amp;#44;&amp;#32;&amp;#26;&amp;#10;&amp;#87;&amp;#97;&amp;#52;&amp;#54;&amp;#93;&amp;#28;&amp;#19;&amp;#114;&amp;#61;&amp;#54;&amp;#81;&amp;#74;&amp;#84;&amp;#34;&amp;#98;&amp;#35;&amp;#89;&amp;#92;&amp;#66;&amp;#101;&amp;#116;&amp;#103;&amp;#93;&amp;#84;&amp;#88;&amp;#116;&amp;#122;&amp;#127;&amp;#94;&amp;#81;&amp;#93;&amp;#115;&amp;#61;&amp;#56;&amp;#20;&amp;#18;&amp;#82;&amp;#111;&amp;#52;&amp;#42;&amp;#74;&amp;#67;&amp;#19;&amp;#58;&amp;#3;&amp;#24;&amp;#20;&amp;#18;&amp;#88;&amp;#109;&amp;#57;&amp;#34;&amp;#93;&amp;#103;&amp;#80;&amp;#114;&amp;#54;&amp;#44;&amp;#86;&amp;#87;&amp;#19;&amp;#58;&amp;#62;&amp;#36;&amp;#84;&amp;#67;&amp;#84;&amp;#125;">
      <g id="xe_sr7msh">
        <path d="M503.4555823217854,308.69538945554194 A10.891110686659811,10.891110686659811 0 0 0 493.12311050224304,301.25000085681677 L493.0855549481511,301.25000085681677 A10.862944021090867,10.862944021090867 0 0 0 482.34466647785905,310.63888937979937 L472.65533352214095,310.63888937979937 A10.862944021090867,10.862944021090867 0 0 0 461.9144450518489,301.25000085681677 L461.87688949775696,301.25000085681677 A10.891110686659811,10.891110686659811 0 0 0 451.5491121224761,308.69538945554194 L442.1132791568786,336.99349946381153 A42.24999835342169,42.24999835342169 0 0 0 439.9444459080696,350.3585822762773 L439.9444459080696,352.88888773322105 L440.1791681211442,352.8560266233906 A16.392999361127615,16.392999361127615 0 0 0 472.8055557385087,350.5416656024754 A16.101943816915156,16.101943816915156 0 0 0 472.5708335254341,348.2273045815602 L472.8055557385087,348.19444347172976 L482.1944442614913,348.19444347172976 L482.4291664745659,348.2273045815602 A16.101943816915156,16.101943816915156 0 0 0 482.1944442614913,350.5416656024754 A16.392999361127615,16.392999361127615 0 0 0 514.8208318788559,352.8560266233906 L515.0555540919304,352.88888773322105 L515.0555540919304,350.3585822762773 A42.24999835342169,42.24999835342169 0 0 0 512.8867208431215,336.99349946381153 L503.4555823217854,308.69538945554194 zM456.37500082328916,357.58333199471235 A7.041666392236948,7.041666392236948 0 0 1 449.4319177605435,351.5321933416501 L449.3333344310522,350.5416656024754 A7.041666392236948,7.041666392236948 0 0 1 463.3180838860348,349.5511378633007 L463.4166672155261,350.5416656024754 A7.041666392236948,7.041666392236948 0 0 1 456.37500082328916,357.58333199471235 zM482.1944442614913,338.80555494874716 L472.8055557385087,338.80555494874716 L472.8055557385087,320.02777790278196 L482.1944442614913,320.02777790278196 L482.1944442614913,338.80555494874716 zM505.5680822394565,351.5321933416501 A7.041666392236948,7.041666392236948 0 0 1 491.5833327844739,350.5416656024754 L491.6819161139652,349.5511378633007 A7.041666392236948,7.041666392236948 0 0 1 505.6666655689478,350.5416656024754 L505.5680822394565,351.5321933416501 z" id="xe_b9hzoj"/>
        <path d="M439.9444459080696,296.55555659532547 L515.0555540919304,296.55555659532547 L515.0555540919304,371.66666477918625 L439.9444459080696,371.66666477918625 L439.9444459080696,296.55555659532547 z" id="xe_9ql7u3" oldfill="none" fill="none"/>
      </g>
    </g>
  </g>
</svg>